<svg xmlns="http://www.w3.org/2000/svg" viewBox="0 0 23 23" width="23" height="23">
	<style>
		tspan { white-space:pre }
		.shp0 { fill: #4285f4 } 
		.shp1 { fill: #34a853 } 
		.shp2 { fill: #fbbc05 } 
		.shp3 { fill: #ea4335 } 
		.shp4 { fill: none } 
	</style>
	<g id="Google-Button">
		<g id="9-PATCH">
		</g>
		<g id="btn_google_light_normal">
			<g id="logo_googleg_48dp">
				<path id="Shape" fill-rule="evenodd" class="shp0" d="M19.64 12.2C19.64 11.57 19.58 10.95 19.48 10.36L11 10.36L11 13.84L15.84 13.84C15.63 14.97 15 15.92 14.05 16.56L14.05 18.82L16.96 18.82C18.66 17.25 19.64 14.95 19.64 12.2L19.64 12.2Z" />
				<path id="Shape" fill-rule="evenodd" class="shp1" d="M11 21C13.43 21 15.47 20.19 16.96 18.82L14.05 16.56C13.24 17.1 12.21 17.42 11 17.42C8.66 17.42 6.67 15.84 5.96 13.71L2.96 13.71L2.96 16.04C4.44 18.98 7.48 21 11 21L11 21Z" />
				<path id="Shape" fill-rule="evenodd" class="shp2" d="M5.96 13.71C5.78 13.17 5.68 12.59 5.68 12C5.68 11.41 5.78 10.83 5.96 10.29L5.96 7.96L2.96 7.96C2.35 9.17 2 10.55 2 12C2 13.45 2.35 14.83 2.96 16.04L5.96 13.71L5.96 13.71Z" />
				<path id="Shape" fill-rule="evenodd" class="shp3" d="M11 6.58C12.32 6.58 13.51 7.03 14.44 7.93L17.02 5.34C15.46 3.89 13.43 3 11 3C7.48 3 4.44 5.02 2.96 7.96L5.96 10.29C6.67 8.16 8.66 6.58 11 6.58L11 6.58Z" />
				<path id="Shape" fill-rule="evenodd" class="shp4" d="M2 3L20 3L20 21L2 21L2 3Z" />
			</g>
			<g id="handles_square">
			</g>
		</g>
	</g>
</svg>